#N canvas 472 0 948 963 10;
#X obj 70 548 outlet~;
#X obj 78 148 inlet;
#X obj 77 238 mtof;
#N canvas 606 414 450 323 stringVoice 0;
#X obj 46 144 phasor~;
#X obj 45 197 expr~ $v1 > $v2;
#X obj 42 250 *~ 0.25;
#X obj 141 123 *~ 0.4;
#X obj 137 151 +~ 0.5;
#X obj 144 93 osc~ 2.1;
#X obj 47 48 sig~;
#X obj 44 110 +~;
#X obj 90 61 osc~ 5;
#X obj 89 89 *~ 3;
#X obj 53 13 inlet;
#X obj 44 282 outlet~;
#X connect 0 0 1 0;
#X connect 1 0 2 0;
#X connect 2 0 11 0;
#X connect 3 0 4 0;
#X connect 4 0 1 1;
#X connect 5 0 3 0;
#X connect 6 0 7 0;
#X connect 7 0 0 0;
#X connect 8 0 9 0;
#X connect 9 0 7 1;
#X connect 10 0 6 0;
#X restore 76 316 pd stringVoice;
#X obj 74 491 *~;
#X obj 605 17 loadbang;
#X obj 202 363 line~;
#X obj 205 233 bng 17 250 50 0 empty empty empty 17 7 0 10 -262144
-1 -1;
#X obj 251 275 del 100;
#X obj 200 388 *~;
#X obj 200 421 *~;
#X obj 75 199 t f b;
#X msg 205 312 1 150;
#X obj 72 520 *~ 4;
#X msg 609 55 2500;
#X obj 249 307 pack 0 2500;
#X connect 1 0 11 0;
#X connect 2 0 3 0;
#X connect 3 0 4 0;
#X connect 4 0 13 0;
#X connect 5 0 14 0;
#X connect 6 0 9 0;
#X connect 6 0 9 1;
#X connect 7 0 12 0;
#X connect 7 0 8 0;
#X connect 8 0 15 0;
#X connect 9 0 10 0;
#X connect 9 0 10 1;
#X connect 10 0 4 1;
#X connect 11 0 2 0;
#X connect 11 1 7 0;
#X connect 12 0 6 0;
#X connect 13 0 0 0;
#X connect 14 0 15 1;
#X connect 15 0 6 0;
