#N canvas 472 0 948 963 10;
#X obj 171 196 *~;
#X obj 254 81 bng 15 250 50 0 empty empty empty 17 7 0 10 -262144 -1
-1;
#N canvas 472 0 948 963 env1 0;
#X obj 48 84 t b b;
#X msg 50 150 0;
#X msg 90 155 1;
#X obj 49 213 tgl 15 0 empty empty empty 17 7 0 10 -262144 -1 -1 0
1;
#X obj 55 31 inlet;
#X obj 49 250 outlet;
#X obj 48 115 del 70;
#X connect 0 0 6 0;
#X connect 0 1 2 0;
#X connect 1 0 3 0;
#X connect 2 0 3 0;
#X connect 3 0 5 0;
#X connect 4 0 0 0;
#X connect 6 0 1 0;
#X restore 251 106 pd env1;
#X obj 171 233 delwrite~ del 500;
#X obj 366 157 delread4~ del;
#X obj 222 349 *~ 0.25;
#X obj 221 385 outlet~;
#X obj 367 192 *~ 0.99;
#X obj 368 94 mtof;
#X obj 367 116 expr 1000 / $f1;
#X obj 255 45 t b f;
#X obj 255 16 inlet;
#X obj 367 223 lop~ 5000;
#X obj 173 72 square~;
#X connect 0 0 3 0;
#X connect 1 0 2 0;
#X connect 2 0 0 1;
#X connect 4 0 5 0;
#X connect 4 0 7 0;
#X connect 5 0 6 0;
#X connect 7 0 12 0;
#X connect 8 0 9 0;
#X connect 9 0 4 0;
#X connect 10 0 1 0;
#X connect 10 1 8 0;
#X connect 11 0 10 0;
#X connect 12 0 3 0;
#X connect 13 0 0 0;
