#N canvas 0 0 1892 963 10;
#X obj 554 352 dac~, f 5;
#X msg 8 27 \; pd dsp 0;
#X msg 86 27 \; pd dsp 1;
#X text 83 5 AUDIO AAN;
#X text 5 7 AUDIO UIT;
#N canvas 0 0 1892 963 sounds 1;
#X obj 1895 1626;
#X obj 59 498 outlet~, f 52;
#N canvas 0 0 1892 963 grid 1;
#X obj 184 253 tgl 27 0 empty empty empty 17 7 0 10 -262144 -1 -1 0
1;
#X obj 138 25 inlet;
#X obj 659 94 udpreceive 9001, f 20;
#X obj 1398 1467 bng 15 250 50 0 empty empty empty 17 7 0 10 -262144
-1 -1;
#X obj 659 128 unpackOSC, f 20;
#X obj 659 192 symbol, f 20;
#X obj 659 223 list fromsymbol, f 20;
#X obj 659 251 list-abs/list-drip, f 20;
#X obj 659 283 list tosymbol, f 20;
#X obj 659 313 list-abs/list-extend;
#X obj 221 637 list;
#X obj 659 162 route /pos, f 20;
#X obj 177 688 zl nth;
#X obj 184 593 t b i;
#X obj 184 562 + 1;
#X obj 199 724 print;
#X obj 212 1275 outlet~;
#X obj 175 772 sel 0 1 2 3 4 5 6, f 101;
#X obj 232 386 * 8;
#X obj 184 475 +, f 2;
#X text 12 14 0 = niks  1 = pion  2 = toren  3 = paard 4 = loper 
5 = koningin  6 = koning, f 10;
#X msg 803 91 2 1 0 0 0 0 1 2 3 1 0 0 0 0 1 3 4 1 0 0 0 0 1 4 5 1 0
0 0 0 1 5 6 1 0 0 0 0 1 6 4 1 0 0 0 0 1 4 3 1 0 0 0 0 1 3 2 1 0 0 0
0 1 2, f 61;
#X msg 841 207 2 1 0 0 0 0 1 2 3 1 0 0 0 0 1 3 4 1 0 0 0 0 1 4 5 1
0 0 0 0 1 5 6 0 0 1 1 0 0 6 4 1 0 0 0 0 1 4 3 1 0 0 0 0 1 3 2 1 0 0
0 0 1 2, f 55;
#X msg 816 148 2 1 0 0 0 0 1 2 3 1 0 0 0 0 1 3 4 1 0 0 0 0 1 4 5 1
0 0 0 0 1 5 6 1 0 0 1 0 0 6 4 1 0 0 0 0 1 4 3 1 0 0 0 0 1 3 2 1 0 0
0 0 1 2;
#X msg 818 259 2 1 0 0 0 0 1 2 3 1 0 0 0 0 1 3 4 1 0 0 0 0 1 4 5 1
0 0 0 0 1 5 6 0 0 1 1 0 0 6 4 1 0 0 0 3 1 4 3 1 0 0 0 0 1 0 2 1 0 0
0 0 1 2;
#X msg 820 315 2 1 0 0 0 0 1 2 3 1 0 0 0 0 1 3 4 1 0 0 0 0 1 4 5 0
1 0 0 0 1 5 6 0 0 1 1 0 0 6 4 1 0 0 0 3 1 4 3 1 0 0 0 0 1 0 2 1 0 0
0 0 1 2;
#X obj 658 62 import mrpeach;
#X obj 658 18 bng 15 250 50 0 empty empty empty 17 7 0 10 -262144 -1
-1;
#X obj 413 722 zl nth;
#X msg 262 1044 60, f 2;
#X msg 606 1043 60;
#X msg 691 1043 60;
#X obj 261 1074 +;
#X obj 345 1074 +;
#X obj 605 1083 +;
#X obj 690 1082 +, f 2;
#X obj 416 559 + 1, f 5;
#X obj 416 597 t b i;
#X msg 820 369 6 2 0 1 4 3 2 1 4 1 0 2 3 1 2 1 3 1 1 3 4 3 0 0 0 0
1 2 3 2 1 4 1 5 6 4 6 5 5 6 0 0 0 5;
#X msg 415 658 12 11 9 7 5 4 2 0;
#X floatatom 184 511 5 0 0 0 - - -, f 5;
#X obj 184 435 counter 0 7;
#X obj 186 386 uzi 8;
#X obj 186 320 counter 0 7;
#X obj 186 354 bng 15 250 50 0 empty empty empty 17 7 0 10 -262144
-1 -1;
#X msg 183 977 1;
#X msg 259 1104 next \$1;
#X msg 192 1000 2;
#X msg 200 1022 3;
#X msg 208 1042 4;
#X msg 215 1062 5;
#X msg 344 1113 next \$1;
#X msg 603 1114 next \$1;
#X obj 260 1133 clone pion.cl 8, f 5;
#X obj 601 1143 clone koningin.cl 2, f 8;
#X obj 344 1140 clone toren.cl 2, f 6;
#X obj 259 1183 *~ 5;
#X obj 183 1132 clone zetten.cl 2, f 7;
#X msg 183 1106 next \$1;
#X obj 688 1142 clone koning.cl 2, f 6;
#X msg 689 1112 next \$1;
#X msg 523 1110 next \$1;
#X obj 523 1142 clone loper.cl 2, f 6;
#X obj 524 1079 +;
#X msg 524 1042 48;
#X obj 428 1074 +;
#X msg 428 1045 48;
#X obj 427 1142 clone paard.cl 2, f 6;
#X msg 425 1111 next \$1;
#X msg 347 1042 24, f 2;
#N canvas 0 0 1892 963 fade 0;
#X obj 128 91 inlet;
#X obj 137 287 outlet;
#X obj 144 127 f;
#X obj 185 89 inlet;
#X obj 137 235 line 0;
#X msg 140 164 \$1 20000;
#X connect 0 0 2 0;
#X connect 2 0 5 0;
#X connect 3 0 2 1;
#X connect 4 0 1 0;
#X connect 5 0 4 0;
#X connect 5 0 4 1;
#X restore 243 192 pd fade;
#X obj 243 92 sel 1;
#X obj 243 143 bng 15 250 50 0 empty empty empty 17 7 0 10 -262144
-1 -1;
#X msg 243 61 1;
#X msg 283 127 0;
#N canvas 0 0 1892 963 fade 0;
#X obj 128 91 inlet;
#X obj 137 287 outlet;
#X obj 144 127 f;
#X obj 185 89 inlet;
#X obj 137 235 line 0;
#X msg 140 164 \$1 20000;
#X connect 0 0 2 0;
#X connect 2 0 5 0;
#X connect 3 0 2 1;
#X connect 4 0 1 0;
#X connect 5 0 4 0;
#X connect 5 0 4 1;
#X restore 382 195 pd fade;
#X obj 382 146 bng 15 250 50 0 empty empty empty 17 7 0 10 -262144
-1 -1;
#X msg 422 130 0;
#N canvas 0 0 1892 963 fade 0;
#X obj 128 91 inlet;
#X obj 137 287 outlet;
#X obj 144 127 f;
#X obj 185 89 inlet;
#X obj 137 235 line 0;
#X msg 140 164 \$1 20000;
#X connect 0 0 2 0;
#X connect 2 0 5 0;
#X connect 3 0 2 1;
#X connect 4 0 1 0;
#X connect 5 0 4 0;
#X connect 5 0 4 1;
#X restore 524 194 pd fade;
#X obj 524 145 bng 15 250 50 0 empty empty empty 17 7 0 10 -262144
-1 -1;
#X msg 564 129 0;
#X msg 585 162 500, f 8;
#X msg 299 157 1500, f 8;
#X msg 443 163 1000, f 8;
#X msg 382 64 2;
#X obj 382 95 sel 2;
#X obj 524 94 sel 3;
#X msg 524 64 3;
#X obj 184 294 metro 2000;
#X connect 0 0 88 0;
#X connect 2 0 4 0;
#X connect 4 0 11 0;
#X connect 5 0 6 0;
#X connect 6 0 7 0;
#X connect 7 0 8 0;
#X connect 7 1 9 1;
#X connect 8 0 9 0;
#X connect 9 0 10 1;
#X connect 10 0 12 0;
#X connect 11 0 5 0;
#X connect 12 0 15 0;
#X connect 12 0 17 0;
#X connect 13 0 10 0;
#X connect 13 1 12 1;
#X connect 14 0 13 0;
#X connect 17 1 29 0;
#X connect 17 2 69 0;
#X connect 17 3 66 0;
#X connect 17 4 64 0;
#X connect 17 5 30 0;
#X connect 17 6 31 0;
#X connect 18 0 19 1;
#X connect 19 0 40 0;
#X connect 21 0 10 1;
#X connect 22 0 10 1;
#X connect 23 0 10 1;
#X connect 24 0 10 1;
#X connect 25 0 10 1;
#X connect 27 0 26 0;
#X connect 28 0 35 1;
#X connect 28 0 34 1;
#X connect 28 0 33 1;
#X connect 28 0 32 1;
#X connect 28 0 63 1;
#X connect 28 0 65 1;
#X connect 29 0 32 0;
#X connect 30 0 34 0;
#X connect 31 0 35 0;
#X connect 32 0 46 0;
#X connect 33 0 51 0;
#X connect 34 0 52 0;
#X connect 35 0 60 0;
#X connect 36 0 37 0;
#X connect 37 0 39 0;
#X connect 37 1 28 1;
#X connect 38 0 10 1;
#X connect 39 0 28 0;
#X connect 40 0 14 0;
#X connect 41 0 19 0;
#X connect 41 0 36 0;
#X connect 42 0 41 0;
#X connect 43 0 18 0;
#X connect 43 0 44 0;
#X connect 44 0 42 0;
#X connect 45 0 58 0;
#X connect 46 0 53 0;
#X connect 47 0 58 0;
#X connect 48 0 58 0;
#X connect 49 0 58 0;
#X connect 50 0 58 0;
#X connect 51 0 55 0;
#X connect 52 0 54 0;
#X connect 53 0 56 0;
#X connect 54 0 16 0;
#X connect 55 0 16 0;
#X connect 56 0 16 0;
#X connect 57 0 16 0;
#X connect 58 0 57 0;
#X connect 59 0 16 0;
#X connect 60 0 59 0;
#X connect 61 0 62 0;
#X connect 62 0 16 0;
#X connect 63 0 61 0;
#X connect 64 0 63 0;
#X connect 65 0 68 0;
#X connect 66 0 65 0;
#X connect 67 0 16 0;
#X connect 68 0 67 0;
#X connect 69 0 33 0;
#X connect 70 0 88 1;
#X connect 71 0 72 0;
#X connect 71 0 82 0;
#X connect 71 1 74 0;
#X connect 71 1 72 0;
#X connect 72 0 70 0;
#X connect 73 0 71 0;
#X connect 74 0 70 1;
#X connect 75 0 88 1;
#X connect 76 0 75 0;
#X connect 77 0 75 1;
#X connect 78 0 88 1;
#X connect 79 0 78 0;
#X connect 80 0 78 1;
#X connect 81 0 78 1;
#X connect 82 0 70 1;
#X connect 82 0 88 1;
#X connect 83 0 75 1;
#X connect 84 0 85 0;
#X connect 85 0 76 0;
#X connect 85 0 83 0;
#X connect 85 1 77 0;
#X connect 85 1 76 0;
#X connect 86 0 79 0;
#X connect 86 0 81 0;
#X connect 86 1 80 0;
#X connect 86 1 79 0;
#X connect 87 0 86 0;
#X connect 88 0 43 0;
#X restore 58 391 pd grid;
#X obj 58 450 freeverb~;
#X connect 2 0 3 0;
#X connect 3 0 1 0;
#X restore 554 255 pd sounds;
#X connect 5 0 0 0;
#X connect 5 0 0 1;
