#N canvas 258 258 625 435 10;
#X obj 554 352 dac~, f 5;
#X msg 7 92 \; pd dsp 0;
#X msg 85 92 \; pd dsp 1;
#X text 82 70 AUDIO AAN;
#X text 4 72 AUDIO UIT;
#N canvas 401 383 623 385 sounds 0;
#X obj 1895 1626;
#X obj 59 498 outlet~, f 52;
#N canvas 0 64 1024 681 grid 1;
#X obj 185 358 tgl 27 0 empty empty empty 17 7 0 10 -262144 -1 -1 1
1;
#X obj 1398 1467 bng 15 250 50 0 empty empty empty 17 7 0 10 -262144
-1 -1;
#X obj 521 187 symbol, f 20;
#X obj 521 218 list fromsymbol, f 20;
#X obj 521 246 list-abs/list-drip, f 20;
#X obj 521 278 list tosymbol, f 20;
#X obj 521 308 list-abs/list-extend;
#X obj 222 742 list;
#X obj 521 157 route /pos, f 20;
#X obj 178 793 zl nth;
#X obj 185 698 t b i;
#X obj 185 667 + 1;
#X obj 212 1397 outlet~;
#X obj 232 518 * 8;
#X obj 185 580 +, f 2;
#X text 9 11 0 = niks  1 = pion  2 = toren  3 = paard 4 = loper 
5 = koningin  6 = koning, f 10;
#X msg 1589 603 2 1 0 0 0 0 1 2 3 1 0 0 0 0 1 3 4 1 0 0 0 0 1 4 5 1
0 0 0 0 1 5 6 1 0 0 0 0 1 6 4 1 0 0 0 0 1 4 3 1 0 0 0 0 1 3 2 1 0 0
0 0 1 2, f 61;
#X msg 1627 719 2 1 0 0 0 0 1 2 3 1 0 0 0 0 1 3 4 1 0 0 0 0 1 4 5 1
0 0 0 0 1 5 6 0 0 1 1 0 0 6 4 1 0 0 0 0 1 4 3 1 0 0 0 0 1 3 2 1 0 0
0 0 1 2, f 55;
#X msg 1602 660 2 1 0 0 0 0 1 2 3 1 0 0 0 0 1 3 4 1 0 0 0 0 1 4 5 1
0 0 0 0 1 5 6 1 0 0 1 0 0 6 4 1 0 0 0 0 1 4 3 1 0 0 0 0 1 3 2 1 0 0
0 0 1 2;
#X msg 1604 771 2 1 0 0 0 0 1 2 3 1 0 0 0 0 1 3 4 1 0 0 0 0 1 4 5 1
0 0 0 0 1 5 6 0 0 1 1 0 0 6 4 1 0 0 0 3 1 4 3 1 0 0 0 0 1 0 2 1 0 0
0 0 1 2;
#X msg 1606 827 2 1 0 0 0 0 1 2 3 1 0 0 0 0 1 3 4 1 0 0 0 0 1 4 5 0
1 0 0 0 1 5 6 0 0 1 1 0 0 6 4 1 0 0 0 3 1 4 3 1 0 0 0 0 1 0 2 1 0 0
0 0 1 2;
#X obj 520 57 import mrpeach;
#X obj 520 13 bng 15 250 50 0 empty empty empty 17 7 0 10 -262144 -1
-1;
#X obj 415 706 zl nth;
#X msg 262 1166 60, f 2;
#X msg 606 1165 60;
#X msg 691 1165 60;
#X obj 261 1196 +;
#X obj 345 1196 +;
#X obj 605 1205 +;
#X obj 690 1204 +, f 2;
#X obj 415 559 + 1, f 5;
#X obj 415 597 t b i, f 6;
#X msg 1606 881 6 2 0 1 4 3 2 1 4 1 0 2 3 1 2 1 3 1 1 3 4 3 0 0 0 0
1 2 3 2 1 4 1 5 6 4 6 5 5 6 0 0 0 5;
#X msg 415 658 12 11 9 7 5 4 2 0;
#X floatatom 185 616 5 0 0 0 - - -, f 5;
#X obj 185 540 counter 0 7;
#X obj 187 425 counter 0 7;
#X obj 187 459 bng 15 250 50 0 empty empty empty 17 7 0 10 -262144
-1 -1;
#X msg 183 1099 1;
#X msg 259 1226 next \$1;
#X msg 192 1122 2;
#X msg 200 1144 3;
#X msg 208 1164 4;
#X msg 215 1184 5;
#X msg 344 1235 next \$1;
#X msg 603 1236 next \$1;
#X obj 260 1255 clone pion.cl 8, f 5;
#X obj 601 1265 clone koningin.cl 2, f 8;
#X obj 344 1262 clone toren.cl 2, f 6;
#X obj 259 1305 *~ 5;
#X obj 183 1254 clone zetten.cl 2, f 7;
#X msg 183 1228 next \$1;
#X obj 688 1264 clone koning.cl 2, f 6;
#X msg 689 1234 next \$1;
#X msg 523 1232 next \$1;
#X obj 523 1264 clone loper.cl 2, f 6;
#X obj 524 1201 +;
#X msg 524 1164 48;
#X obj 428 1196 +;
#X msg 428 1167 48;
#X obj 427 1264 clone paard.cl 2, f 6;
#X msg 427 1233 next \$1;
#X msg 347 1164 24, f 2;
#X obj 185 399 metro 2000;
#X obj 197 174 +;
#X obj 227 174 f;
#X msg 227 122 2000;
#X obj 226 6 loadbang;
#X msg 197 97 -25;
#X msg 362 156 1;
#X obj 362 186 +;
#X obj 392 186 f;
#X floatatom 362 223 5 0 0 0 - - -, f 5;
#X obj 362 116 bng 15 250 50 0 empty empty empty 17 7 0 10 -262144
-1 -1;
#X floatatom 242 370 5 0 0 0 - - -, f 5;
#X obj 197 261 select 500;
#X floatatom 197 232 5 0 0 0 - - -, f 5;
#X msg 197 290 0;
#X msg 242 289 1;
#X obj 242 342 gate 1;
#X text 397 222 Aantal zetten;
#X msg 392 155 0;
#X obj 392 116 bng 15 250 50 0 empty empty empty 17 7 0 10 -262144
-1 -1;
#X text 410 115 reset;
#X msg 916 385 1;
#X obj 1050 333 route /check_mate, f 20;
#X obj 915 360 bng 15 250 50 0 empty empty empty 17 7 0 10 -262144
-1 -1;
#X obj 1049 362 bng 15 250 50 0 empty empty empty 17 7 0 10 -262144
-1 -1;
#X msg 1050 389 0;
#X obj 1189 372 bng 15 250 50 0 empty empty empty 17 7 0 10 -262144
-1 -1;
#X msg 223 1207 6;
#X obj 1190 336 route /move_building_error, f 20;
#X obj 1325 384 bng 15 250 50 0 empty empty empty 17 7 0 10 -262144
-1 -1;
#X obj 1321 337 route /move_failed, f 20;
#X obj 1461 336 route /move_result;
#X obj 1461 401 select 0 1 2;
#X obj 560 12 loadbang;
#X obj 521 89 udpreceive 5001, f 20;
#X obj 521 123 unpackOSC, f 20;
#X obj 426 59 import cyclone;
#X obj 188 492 Uzi 8;
#X obj 916 333 route /new_game, f 20;
#X obj 243 458 < 4;
#X obj 232 492 spigot;
#X obj 807 959 print;
#X obj 819 925 prepend dump;
#X obj 177 894 route 0 1 2 3 4 5 6, f 101;
#X obj 595 347 print;
#X obj 523 346 t b l;
#X obj 180 841 atoi;
#X connect 0 0 64 0;
#X connect 2 0 3 0;
#X connect 3 0 4 0;
#X connect 4 0 5 0;
#X connect 4 1 6 1;
#X connect 5 0 6 0;
#X connect 6 0 108 0;
#X connect 6 0 109 0;
#X connect 7 0 9 0;
#X connect 8 0 2 0;
#X connect 9 0 110 0;
#X connect 10 0 7 0;
#X connect 10 1 9 1;
#X connect 11 0 10 0;
#X connect 13 0 14 1;
#X connect 14 0 35 0;
#X connect 16 0 7 1;
#X connect 17 0 7 1;
#X connect 18 0 7 1;
#X connect 19 0 7 1;
#X connect 20 0 7 1;
#X connect 22 0 21 0;
#X connect 22 0 100 0;
#X connect 23 0 30 1;
#X connect 23 0 29 1;
#X connect 23 0 28 1;
#X connect 23 0 27 1;
#X connect 23 0 57 1;
#X connect 23 0 59 1;
#X connect 24 0 27 0;
#X connect 25 0 29 0;
#X connect 26 0 30 0;
#X connect 27 0 40 0;
#X connect 28 0 45 0;
#X connect 29 0 46 0;
#X connect 30 0 54 0;
#X connect 31 0 32 0;
#X connect 32 0 34 0;
#X connect 32 1 23 1;
#X connect 33 0 7 1;
#X connect 34 0 23 0;
#X connect 35 0 11 0;
#X connect 36 0 14 0;
#X connect 36 0 31 0;
#X connect 37 0 38 0;
#X connect 37 0 104 0;
#X connect 37 0 103 0;
#X connect 38 0 101 0;
#X connect 39 0 52 0;
#X connect 40 0 47 0;
#X connect 41 0 52 0;
#X connect 42 0 52 0;
#X connect 43 0 52 0;
#X connect 44 0 52 0;
#X connect 45 0 49 0;
#X connect 46 0 48 0;
#X connect 47 0 50 0;
#X connect 48 0 12 0;
#X connect 49 0 12 0;
#X connect 50 0 12 0;
#X connect 51 0 12 0;
#X connect 52 0 51 0;
#X connect 53 0 12 0;
#X connect 54 0 53 0;
#X connect 55 0 56 0;
#X connect 56 0 12 0;
#X connect 57 0 55 0;
#X connect 58 0 57 0;
#X connect 59 0 62 0;
#X connect 60 0 59 0;
#X connect 61 0 12 0;
#X connect 62 0 61 0;
#X connect 63 0 28 0;
#X connect 64 0 37 0;
#X connect 65 0 66 0;
#X connect 65 0 77 0;
#X connect 65 0 80 1;
#X connect 66 0 65 1;
#X connect 66 0 77 0;
#X connect 66 0 80 1;
#X connect 67 0 66 0;
#X connect 68 0 67 0;
#X connect 68 0 79 0;
#X connect 68 0 83 0;
#X connect 69 0 65 0;
#X connect 69 0 74 0;
#X connect 70 0 71 0;
#X connect 71 0 72 0;
#X connect 71 0 73 0;
#X connect 72 0 71 1;
#X connect 72 0 73 0;
#X connect 74 0 70 0;
#X connect 75 0 64 1;
#X connect 76 0 78 0;
#X connect 77 0 76 0;
#X connect 78 0 80 0;
#X connect 79 0 80 0;
#X connect 80 0 75 0;
#X connect 82 0 72 0;
#X connect 83 0 82 0;
#X connect 85 0 0 0;
#X connect 86 0 88 0;
#X connect 87 0 85 0;
#X connect 88 0 89 0;
#X connect 88 0 37 2;
#X connect 89 0 0 0;
#X connect 90 0 91 0;
#X connect 91 0 52 0;
#X connect 92 0 90 0;
#X connect 93 0 44 0;
#X connect 94 0 93 0;
#X connect 95 0 96 0;
#X connect 96 0 43 0;
#X connect 96 1 39 0;
#X connect 96 2 41 0;
#X connect 97 0 21 0;
#X connect 97 0 100 0;
#X connect 98 0 99 0;
#X connect 99 0 8 0;
#X connect 99 0 86 0;
#X connect 99 0 92 0;
#X connect 99 0 94 0;
#X connect 99 0 95 0;
#X connect 99 0 102 0;
#X connect 101 0 36 0;
#X connect 102 0 87 0;
#X connect 102 0 16 0;
#X connect 103 0 104 1;
#X connect 104 0 13 0;
#X connect 106 0 105 0;
#X connect 107 1 24 0;
#X connect 107 1 106 0;
#X connect 107 2 63 0;
#X connect 107 3 60 0;
#X connect 107 4 58 0;
#X connect 107 5 25 0;
#X connect 107 6 26 0;
#X connect 109 0 7 0;
#X connect 109 1 7 1;
#X connect 110 0 107 0;
#X restore 58 391 pd grid;
#X obj 58 450 freeverb~;
#X connect 2 0 3 0;
#X connect 3 0 1 0;
#X restore 554 255 pd sounds;
#X obj 85 15 loadbang;
#X connect 5 0 0 0;
#X connect 5 0 0 1;
#X connect 6 0 2 0;
