#N canvas -9 -9 1910 981 10;
#X obj 341 425 mtof;
#X obj 341 353 t f b, f 56;
#X text 743 354 decay time;
#N canvas 0 0 1888 970 env 0;
#X obj 48 190 line~;
#X obj 51 60 bng 17 250 50 0 empty empty empty 17 7 0 10 -262144 -1
-1;
#X obj 46 215 *~;
#X obj 46 248 *~;
#X text 200 14 decay time;
#X obj 50 19 inlet;
#X obj 47 292 outlet~;
#X obj 154 16 inlet;
#X obj 97 102 del 50;
#X msg 49 139 0.99 100;
#X obj 115 139 pack 0 2000;
#X connect 0 0 2 0;
#X connect 0 0 2 1;
#X connect 1 0 9 0;
#X connect 1 0 8 0;
#X connect 2 0 3 0;
#X connect 2 0 3 1;
#X connect 3 0 6 0;
#X connect 5 0 1 0;
#X connect 7 0 10 1;
#X connect 8 0 10 0;
#X connect 9 0 0 0;
#X connect 10 0 0 0;
#X restore 676 415 pd env;
#X floatatom 709 356 5 0 0 0 - - -, f 5;
#X obj 43 90 loadbang;
#X obj 685 1169 outlet~;
#X obj 339 606 sig~;
#X obj 339 650 *~;
#X obj 340 745 osc~;
#X obj 340 788 *~;
#X obj 464 612 sig~;
#X obj 464 656 *~;
#X obj 465 751 osc~;
#X obj 465 794 *~;
#X obj 597 612 sig~;
#X obj 597 656 *~;
#X obj 598 751 osc~;
#X obj 598 794 *~;
#X obj 729 612 sig~;
#X obj 729 656 *~;
#X obj 730 751 osc~;
#X obj 730 794 *~;
#X obj 878 619 sig~;
#X obj 878 663 *~;
#X obj 879 758 osc~;
#X obj 878 797 *~;
#X obj 1027 618 sig~;
#X obj 1027 662 *~;
#X obj 1028 757 osc~;
#X obj 1027 808 *~;
#X obj 496 486 t 4 0.78, f 9;
#X obj 761 486 t 1 0.92, f 9;
#X obj 1059 492 t 2 0.55, f 9;
#X obj 910 493 t 2 0.82, f 9;
#X obj 336 932 *~;
#X obj 458 916 *~;
#X obj 724 921 *~;
#X obj 1024 912 *~, f 2;
#X obj 877 929 *~;
#X obj 581 921 *~;
#X obj 371 480 t 1 0.9, f 9;
#X obj 628 486 t 2 0.9, f 9;
#X msg 707 109 500;
#X obj 339 61 inlet;
#X connect 0 0 7 0;
#X connect 1 0 0 0;
#X connect 1 1 3 0;
#X connect 3 0 35 1;
#X connect 3 0 36 1;
#X connect 3 0 40 1;
#X connect 3 0 37 1;
#X connect 3 0 39 1;
#X connect 3 0 38 1;
#X connect 4 0 3 1;
#X connect 5 0 43 0;
#X connect 5 0 31 0;
#X connect 5 0 32 0;
#X connect 5 0 34 0;
#X connect 5 0 33 0;
#X connect 5 0 41 0;
#X connect 5 0 42 0;
#X connect 7 0 8 0;
#X connect 8 0 9 0;
#X connect 9 0 10 0;
#X connect 10 0 35 0;
#X connect 11 0 12 0;
#X connect 12 0 13 0;
#X connect 13 0 14 0;
#X connect 14 0 36 0;
#X connect 15 0 16 0;
#X connect 16 0 17 0;
#X connect 17 0 18 0;
#X connect 18 0 40 0;
#X connect 19 0 20 0;
#X connect 20 0 21 0;
#X connect 21 0 22 0;
#X connect 22 0 37 0;
#X connect 23 0 24 0;
#X connect 24 0 25 0;
#X connect 25 0 26 0;
#X connect 26 0 39 0;
#X connect 27 0 28 0;
#X connect 28 0 29 0;
#X connect 29 0 30 0;
#X connect 30 0 38 0;
#X connect 31 0 12 1;
#X connect 31 1 14 1;
#X connect 32 0 20 1;
#X connect 32 1 22 1;
#X connect 33 0 28 1;
#X connect 33 1 30 1;
#X connect 34 0 24 1;
#X connect 34 1 26 1;
#X connect 35 0 6 0;
#X connect 36 0 6 0;
#X connect 37 0 6 0;
#X connect 38 0 6 0;
#X connect 39 0 6 0;
#X connect 40 0 6 0;
#X connect 41 0 8 1;
#X connect 41 1 10 1;
#X connect 42 0 16 1;
#X connect 42 1 18 1;
#X connect 43 0 4 0;
#X connect 44 0 1 0;
