#N canvas -9 -9 1910 981 10;
#X text 386 169 CutOff;
#X text 440 169 Reso;
#X text 479 169 EnvMod;
#X text 529 169 Decay;
#X obj 400 74 loadbang;
#X obj 758 313 vradio 15 1 0 5 empty empty empty 0 -6 0 8 -262144 -1
-1 0;
#X msg 758 391 ext \$1;
#X obj 758 411 s bass_ctl;
#X obj 631 185 vsl 25 128 0 127 0 0 empty empty empty 0 -8 0 8 -262144
-1 -1 0 1;
#X msg 631 341 glide \$1;
#X obj 758 193 vradio 15 1 0 4 empty empty empty 0 -6 0 8 -262144 -1
-1 0;
#X obj 758 276 s bass_ctl;
#X msg 758 256 vco \$1;
#X obj 758 449 tgl 15 0 empty empty empty 0 -6 0 8 -262144 -1 -1 0
1;
#X obj 758 487 s bass_ctl;
#X msg 758 467 hpf \$1;
#X obj 92 412 vradio 15 1 0 3 empty empty empty 0 -6 0 8 -262144 -1
-1 0;
#X obj 92 480 s bass_ctl;
#X msg 92 460 limit \$1;
#X msg 757 132 tune \$1;
#X floatatom 757 114 5 0 0 0 - - -, f 5;
#X obj 757 154 s bass_ctl;
#X msg 757 91 440;
#X floatatom 79 220 5 0 0 0 - - -, f 5;
#X obj 494 419 r bass_ctl;
#X text 777 192 Saw;
#X text 777 208 Square;
#X text 777 224 Tri;
#X text 777 238 Sine;
#X text 778 450 VCO-HPF;
#X text 796 114 Tune;
#X text 775 311 Int.Only;
#X text 775 328 Ext.Only;
#X text 775 343 Int.+Ext.;
#X text 775 358 Ext.Only+HPF;
#X text 776 374 Int.+Ext.+HPF;
#X text 110 412 No limiting;
#X text 111 428 Hard Limiting;
#X text 111 443 Sine Limiting;
#X text 628 167 Glide;
#X msg 69 143 30 0.5 0.3 0.1 0.5;
#X obj 400 184 vsl 25 128 -1 1 0 0 empty empty empty 0 -8 0 8 -262144
-1 -1 0 1;
#X obj 446 184 vsl 25 128 -1 2 0 0 empty empty empty 0 -8 0 8 -262144
-1 -1 0 1;
#X obj 492 184 vsl 25 128 -1 2 0 0 empty empty empty 0 -8 0 8 -262144
-1 -1 0 1;
#X obj 538 184 vsl 25 128 -1 1 0 0 empty empty empty 0 -8 0 8 -262144
-1 -1 0 1;
#X obj 584 184 vsl 25 128 0 1 0 0 empty empty empty 0 -8 0 8 -262144
-1 -1 0 1;
#X msg 400 141 0.5;
#X msg 446 141 0.8;
#X msg 492 141 0.7;
#X msg 538 141 0.1;
#X msg 584 141 0.5;
#X msg 79 284 -1;
#X text 64 116 <note> <reso> <envmod> <decay> <pulsewidth>;
#X text 65 103 Send Note-Events as List of Floats:;
#X text 79 266 -1 to turn Note Off;
#X text 67 127 All Parameters are optional;
#X obj 69 310 s bass_ctl;
#X text 72 394 Output-Signal Limiting:;
#X text 757 177 VCO WaveSelect:;
#X text 756 76 VCO Tuning:;
#X text 757 298 SoundSource:;
#X text 757 433 Extra HiPass:;
#X msg 252 502 envinc \$1;
#X obj 252 522 s bass_ctl;
#X msg 252 363 8;
#X msg 252 380 64;
#X msg 252 397 256;
#X msg 252 414 1024;
#X msg 252 431 8192;
#X msg 252 465 32768;
#X msg 252 482 65536;
#X msg 252 448 16384;
#X text 79 189 Note-Number to;
#X text 79 202 play immediatly;
#X text 220 348 EnvGen Stepsize:;
#X text 35 60 the leftmost inlet.;
#X msg 400 324 cutoff \$1;
#X msg 446 344 reso \$1;
#X obj 492 380 s bass_ctl;
#X msg 492 320 envmod \$1;
#X msg 538 340 decay \$1;
#X msg 584 320 pw \$1;
#X msg 501 450 reset;
#X text 545 439 Emergency Reset;
#X text 545 452 in case the filter;
#X text 545 464 goes mad;
#X text 429 23 Extreme settings here may;
#X text 430 39 bork up the Filter. Use the;
#X text 429 53 reset message to the bassemu then;
#X text 582 159 Rect;
#X text 579 169 Width;
#X obj 631 320 / 127;
#X msg 245 295 pitch \$1;
#X obj 248 237 hsl 129 15 0 128 0 0 empty empty empty -2 -6 0 8 -262144
-1 -1 0 1;
#X obj 245 254 - 64;
#X obj 245 314 s bass_ctl;
#X obj 245 273 / 16;
#X msg 245 218 64;
#X obj 278 255 nbx 5 14 -1e+037 1e+037 0 0 empty empty empty 0 -6 0
10 -262144 -1 -1 0 256 0;
#X text 286 218 Pitch Bend;
#N canvas 504 253 494 344 META 0;
#X text 12 135 RELEASE_DATE 2009-06-12;
#X text 12 155 HELP_PATCH_AUTHORS "pd meta" information added by Jonathan
Wilkes for Pd version 0.42.;
#X text 12 45 DESCRIPTION a transistor bass emulation;
#X text 12 65 INLET_0 float list reset pitch cutoff reso envmod decay
pw glide limit envinc hpf ext vco tune;
#X text 12 95 OUTLET_0 signal;
#X text 12 115 AUTHOR Christian Klippel;
#X text 12 25 LICENSE GPL;
#X text 12 5 KEYWORDS signal;
#X restore 828 546 pd META;
#X obj 494 487 bassemu~;
#X obj 497 571 outlet~;
#X obj 26 181 inlet;
#N canvas 0 0 1904 1009 env 0;
#X obj 48 190 line~;
#X obj 51 60 bng 17 250 50 0 empty empty empty 17 7 0 10 -262144 -1
-1;
#X obj 96 138 pack 0 500;
#X obj 97 102 del 100;
#X obj 46 215 *~;
#X obj 46 248 *~;
#X text 200 14 decay time;
#X obj 50 19 inlet;
#X obj 47 292 outlet~;
#X obj 154 16 inlet;
#X msg 50 139 1 5;
#X connect 0 0 4 0;
#X connect 0 0 4 1;
#X connect 1 0 10 0;
#X connect 1 0 3 0;
#X connect 2 0 0 0;
#X connect 3 0 2 0;
#X connect 4 0 5 0;
#X connect 4 0 5 1;
#X connect 5 0 8 0;
#X connect 7 0 1 0;
#X connect 9 0 2 1;
#X connect 10 0 0 0;
#X restore 628 508 pd env;
#X obj 495 534 *~;
#X text 972 455 decay time;
#X floatatom 938 455 5 0 0 0 - - -, f 5;
#X obj 936 35 loadbang;
#X msg 636 142 60;
#X msg 937 61 3000;
#X connect 4 0 46 0;
#X connect 4 0 47 0;
#X connect 4 0 48 0;
#X connect 4 0 49 0;
#X connect 4 0 50 0;
#X connect 4 0 22 0;
#X connect 4 0 97 0;
#X connect 4 0 109 0;
#X connect 5 0 6 0;
#X connect 6 0 7 0;
#X connect 8 0 91 0;
#X connect 9 0 78 0;
#X connect 10 0 12 0;
#X connect 12 0 11 0;
#X connect 13 0 15 0;
#X connect 15 0 14 0;
#X connect 16 0 18 0;
#X connect 18 0 17 0;
#X connect 19 0 21 0;
#X connect 20 0 19 0;
#X connect 22 0 20 0;
#X connect 23 0 56 0;
#X connect 24 0 101 0;
#X connect 40 0 56 0;
#X connect 41 0 76 0;
#X connect 42 0 77 0;
#X connect 43 0 79 0;
#X connect 44 0 80 0;
#X connect 45 0 81 0;
#X connect 46 0 41 0;
#X connect 47 0 42 0;
#X connect 48 0 43 0;
#X connect 49 0 44 0;
#X connect 50 0 45 0;
#X connect 51 0 56 0;
#X connect 62 0 63 0;
#X connect 64 0 62 0;
#X connect 65 0 62 0;
#X connect 66 0 62 0;
#X connect 67 0 62 0;
#X connect 68 0 62 0;
#X connect 69 0 62 0;
#X connect 70 0 62 0;
#X connect 71 0 62 0;
#X connect 76 0 78 0;
#X connect 77 0 78 0;
#X connect 79 0 78 0;
#X connect 80 0 78 0;
#X connect 81 0 78 0;
#X connect 82 0 101 0;
#X connect 91 0 9 0;
#X connect 92 0 95 0;
#X connect 93 0 94 0;
#X connect 94 0 96 0;
#X connect 96 0 92 0;
#X connect 96 0 98 0;
#X connect 97 0 93 0;
#X connect 101 0 105 0;
#X connect 103 0 56 0;
#X connect 103 0 104 0;
#X connect 104 0 105 1;
#X connect 105 0 102 0;
#X connect 107 0 104 1;
#X connect 108 0 110 0;
#X connect 109 0 8 0;
#X connect 110 0 107 0;
