#N canvas 0 0 1888 970 10;
#X obj 299 501 mtof;
#X obj 299 429 t f b, f 56;
#X text 697 418 decay time;
#N canvas 0 0 1904 1009 env 0;
#X obj 48 190 line~;
#X obj 51 60 bng 17 250 50 0 empty empty empty 17 7 0 10 -262144 -1
-1;
#X obj 96 138 pack 0 500;
#X obj 97 102 del 100;
#X obj 46 215 *~;
#X obj 46 248 *~;
#X text 200 14 decay time;
#X obj 50 19 inlet;
#X obj 47 292 outlet~;
#X obj 154 16 inlet;
#X msg 50 139 1 5;
#X connect 0 0 4 0;
#X connect 0 0 4 1;
#X connect 1 0 10 0;
#X connect 1 0 3 0;
#X connect 2 0 0 0;
#X connect 3 0 2 0;
#X connect 4 0 5 0;
#X connect 4 0 5 1;
#X connect 5 0 8 0;
#X connect 7 0 1 0;
#X connect 9 0 2 1;
#X connect 10 0 0 0;
#X restore 634 490 pd env;
#X floatatom 663 420 5 0 0 0 - - -, f 5;
#X obj 5 5 loadbang;
#X msg 669 24 500;
#X obj 300 683 *~ 1;
#X obj 1800 1596;
#X obj 351 723 *~ 1;
#X obj 350 829 *~;
#X obj 350 777 osc~;
#X obj 402 776 *~;
#X obj 302 872 +~;
#X obj 303 933 osc~;
#X obj 356 932 *~;
#X obj 303 976 *~;
#X obj 545 678 *~ 1;
#X obj 596 718 *~ 1;
#X obj 595 824 *~;
#X obj 595 772 osc~;
#X obj 647 771 *~;
#X obj 547 867 +~;
#X obj 548 928 osc~;
#X obj 601 927 *~;
#X obj 548 971 *~;
#X obj 300 568 sig~;
#X obj 304 1057 osc~;
#X obj 550 1043 osc~;
#X obj 303 1014 +~;
#X obj 550 1012 +~;
#X obj 304 1090 *~;
#X obj 551 1101 *~;
#X obj 302 1184 +~;
#X obj 318 533 t 2.02 5.05 0.76 0.88, f 26;
#X obj 563 530 t 2 9.05 0.7 0.88, f 27;
#X obj 362 177 bng 15 250 50 0 empty empty empty 17 7 0 10 -262144
-1 -1;
#X obj 298 177 bng 15 250 50 0 empty empty empty 17 7 0 10 -262144
-1 -1;
#X obj 429 178 bng 15 250 50 0 empty empty empty 17 7 0 10 -262144
-1 -1;
#X obj 494 179 bng 15 250 50 0 empty empty empty 17 7 0 10 -262144
-1 -1;
#X text 297 137 neutraal;
#X text 360 153 goed;
#X text 425 156 beste;
#X text 490 159 foute;
#X text 556 157 blunder;
#X obj 561 180 bng 15 250 50 0 empty empty empty 17 7 0 10 -262144
-1 -1;
#N canvas 0 0 1904 986 zetten 0;
#X obj 633 149 pipe 200, f 5;
#X obj 673 148 pipe 400, f 5;
#X obj 598 67 t 58 64 58 64 58 64, f 13;
#X obj 598 24 inlet;
#X obj 216 437 outlet;
#X obj 291 117 pipe 200, f 4;
#X obj 381 116 pipe 200, f 4;
#X obj 510 113 pipe 200, f 5;
#X obj 252 80 t 60 67;
#X obj 156 75 t 60;
#X obj 413 151 pipe 400, f 4;
#X obj 354 78 t 60 67 72;
#X obj 471 76 t 58 57;
#X obj 159 32 inlet;
#X obj 249 33 inlet;
#X obj 350 28 inlet;
#X obj 472 32 inlet;
#X text 161 10 neutraal;
#X text 248 9 goed;
#X text 351 10 beste;
#X text 469 10 foute;
#X text 598 4 blunder;
#X connect 0 0 4 0;
#X connect 1 0 4 0;
#X connect 2 0 4 0;
#X connect 2 1 4 0;
#X connect 2 2 0 0;
#X connect 2 3 0 0;
#X connect 2 4 1 0;
#X connect 2 5 1 0;
#X connect 3 0 2 0;
#X connect 5 0 4 0;
#X connect 6 0 4 0;
#X connect 7 0 4 0;
#X connect 8 0 4 0;
#X connect 8 1 5 0;
#X connect 9 0 4 0;
#X connect 10 0 4 0;
#X connect 11 0 4 0;
#X connect 11 1 6 0;
#X connect 11 2 10 0;
#X connect 12 0 4 0;
#X connect 12 1 7 0;
#X connect 13 0 9 0;
#X connect 14 0 8 0;
#X connect 15 0 11 0;
#X connect 16 0 12 0;
#X restore 300 209 pd zetten;
#X f 44;
#X obj 302 1240 outlet~;
#X obj 377 44 inlet;
#X obj 378 87 sel 1 2 3 4 5;
#X connect 0 0 26 0;
#X connect 1 0 0 0;
#X connect 1 1 3 0;
#X connect 3 0 31 1;
#X connect 3 0 32 1;
#X connect 4 0 3 1;
#X connect 5 0 6 0;
#X connect 5 0 34 0;
#X connect 5 0 35 0;
#X connect 6 0 4 0;
#X connect 7 0 9 0;
#X connect 7 0 13 0;
#X connect 7 0 15 0;
#X connect 9 0 11 0;
#X connect 9 0 12 0;
#X connect 10 0 13 1;
#X connect 11 0 10 0;
#X connect 12 0 10 1;
#X connect 13 0 14 0;
#X connect 14 0 16 0;
#X connect 15 0 16 1;
#X connect 16 0 29 0;
#X connect 17 0 18 0;
#X connect 17 0 22 0;
#X connect 17 0 24 0;
#X connect 18 0 20 0;
#X connect 18 0 21 0;
#X connect 19 0 22 1;
#X connect 20 0 19 0;
#X connect 21 0 19 1;
#X connect 22 0 23 0;
#X connect 23 0 25 0;
#X connect 24 0 25 1;
#X connect 25 0 30 0;
#X connect 26 0 7 0;
#X connect 26 0 17 0;
#X connect 26 0 30 1;
#X connect 26 0 29 1;
#X connect 27 0 31 0;
#X connect 28 0 32 0;
#X connect 29 0 27 0;
#X connect 30 0 28 0;
#X connect 31 0 33 0;
#X connect 32 0 33 1;
#X connect 33 0 47 0;
#X connect 34 0 7 1;
#X connect 34 1 9 1;
#X connect 34 2 12 1;
#X connect 34 3 15 1;
#X connect 35 0 17 1;
#X connect 35 1 18 1;
#X connect 35 2 21 1;
#X connect 35 3 24 1;
#X connect 36 0 46 1;
#X connect 37 0 46 0;
#X connect 38 0 46 2;
#X connect 39 0 46 3;
#X connect 45 0 46 4;
#X connect 46 0 1 0;
#X connect 48 0 49 0;
#X connect 49 0 37 0;
#X connect 49 1 36 0;
#X connect 49 2 38 0;
#X connect 49 3 39 0;
#X connect 49 4 45 0;
