#N canvas 0 0 1892 963 10;
#X obj 320 522 mtof;
#X obj 320 450 t f b, f 56;
#X text 722 439 decay time;
#N canvas 0 0 1904 1009 env 0;
#X obj 48 190 line~;
#X obj 51 60 bng 17 250 50 0 empty empty empty 17 7 0 10 -262144 -1
-1;
#X obj 96 138 pack 0 500;
#X obj 97 102 del 100;
#X obj 46 215 *~;
#X obj 46 248 *~;
#X text 200 14 decay time;
#X obj 50 19 inlet;
#X obj 47 292 outlet~;
#X obj 154 16 inlet;
#X msg 50 139 1 5;
#X connect 0 0 4 0;
#X connect 0 0 4 1;
#X connect 1 0 10 0;
#X connect 1 0 3 0;
#X connect 2 0 0 0;
#X connect 3 0 2 0;
#X connect 4 0 5 0;
#X connect 4 0 5 1;
#X connect 5 0 8 0;
#X connect 7 0 1 0;
#X connect 9 0 2 1;
#X connect 10 0 0 0;
#X restore 655 511 pd env;
#X floatatom 688 441 5 0 0 0 - - -, f 5;
#X obj 26 26 loadbang;
#X msg 687 45 500;
#X obj 321 704 *~ 1;
#X obj 1821 1617;
#X obj 372 744 *~ 1;
#X obj 371 850 *~;
#X obj 371 798 osc~;
#X obj 423 797 *~;
#X obj 323 893 +~;
#X obj 324 954 osc~;
#X obj 377 953 *~;
#X obj 324 997 *~;
#X obj 566 699 *~ 1;
#X obj 617 739 *~ 1;
#X obj 616 845 *~;
#X obj 616 793 osc~;
#X obj 668 792 *~;
#X obj 568 888 +~;
#X obj 569 949 osc~;
#X obj 622 948 *~;
#X obj 569 992 *~;
#X obj 321 589 sig~;
#X obj 325 1078 osc~;
#X obj 571 1064 osc~;
#X obj 324 1035 +~;
#X obj 571 1033 +~;
#X obj 325 1111 *~;
#X obj 572 1122 *~;
#X obj 323 1205 +~;
#X obj 339 554 t 2.02 5.05 0.76 0.88, f 26;
#X obj 584 551 t 2 9.05 0.7 0.88, f 27;
#X obj 386 198 bng 15 250 50 0 empty empty empty 17 7 0 10 -262144
-1 -1;
#X obj 321 198 bng 15 250 50 0 empty empty empty 17 7 0 10 -262144
-1 -1;
#X obj 451 199 bng 15 250 50 0 empty empty empty 17 7 0 10 -262144
-1 -1;
#X obj 516 200 bng 15 250 50 0 empty empty empty 17 7 0 10 -262144
-1 -1;
#X text 321 178 neutraal;
#X text 387 178 goed;
#X text 454 178 beste;
#X obj 582 201 bng 16 250 50 0 empty empty empty 17 7 0 10 -262144
-1 -1;
#N canvas 0 0 1904 986 zetten 0;
#X obj 633 149 pipe 200, f 5;
#X obj 673 148 pipe 400, f 5;
#X obj 598 67 t 58 64 58 64 58 64, f 13;
#X obj 598 24 inlet;
#X obj 216 437 outlet;
#X obj 291 117 pipe 200, f 4;
#X obj 381 116 pipe 200, f 4;
#X obj 510 113 pipe 200, f 5;
#X obj 252 80 t 60 67;
#X obj 156 75 t 60;
#X obj 413 151 pipe 400, f 4;
#X obj 354 78 t 60 67 72;
#X obj 471 76 t 58 57;
#X obj 159 32 inlet;
#X obj 249 33 inlet;
#X obj 350 28 inlet;
#X obj 472 32 inlet;
#X text 161 10 neutraal;
#X text 248 9 goed;
#X text 351 10 beste;
#X text 598 4 onmogelijke zet;
#X obj 785 152 pipe 200, f 5;
#X obj 825 151 pipe 400, f 5;
#X obj 750 70 t 58 64 58 64 58 64, f 13;
#X obj 750 27 inlet;
#X obj 897 153 pipe 200, f 5;
#X obj 941 154 pipe 400, f 5;
#X obj 866 73 t 58 64 58 64 58 64, f 13;
#X obj 1019 153 pipe 200, f 5;
#X obj 1059 153 pipe 400, f 5;
#X obj 984 71 t 58 64 58 64 58 64, f 13;
#X obj 867 47 delay 750;
#X obj 988 42 delay 1500;
#X text 750 7 systeem fout;
#X text 469 9 slechte;
#X connect 0 0 4 0;
#X connect 1 0 4 0;
#X connect 2 0 4 0;
#X connect 2 1 4 0;
#X connect 2 2 0 0;
#X connect 2 3 0 0;
#X connect 2 4 1 0;
#X connect 2 5 1 0;
#X connect 3 0 2 0;
#X connect 5 0 4 0;
#X connect 6 0 4 0;
#X connect 7 0 4 0;
#X connect 8 0 4 0;
#X connect 8 1 5 0;
#X connect 9 0 4 0;
#X connect 10 0 4 0;
#X connect 11 0 4 0;
#X connect 11 1 6 0;
#X connect 11 2 10 0;
#X connect 12 0 4 0;
#X connect 12 1 7 0;
#X connect 13 0 9 0;
#X connect 14 0 8 0;
#X connect 15 0 11 0;
#X connect 16 0 12 0;
#X connect 21 0 4 0;
#X connect 22 0 4 0;
#X connect 23 2 21 0;
#X connect 23 3 21 0;
#X connect 23 4 22 0;
#X connect 23 5 22 0;
#X connect 24 0 23 0;
#X connect 24 0 31 0;
#X connect 24 0 32 0;
#X connect 25 0 4 0;
#X connect 26 0 4 0;
#X connect 27 2 25 0;
#X connect 27 3 25 0;
#X connect 27 4 26 0;
#X connect 27 5 26 0;
#X connect 28 0 4 0;
#X connect 29 0 4 0;
#X connect 30 2 28 0;
#X connect 30 3 28 0;
#X connect 30 4 29 0;
#X connect 30 5 29 0;
#X connect 31 0 27 0;
#X connect 32 0 30 0;
#X restore 321 230 pd zetten;
#X f 44;
#X obj 323 1261 outlet~;
#X obj 321 70 inlet;
#X obj 321 114 sel 1 2 3 4 5 6, f 66;
#X obj 649 201 bng 16 250 50 0 empty empty empty 17 7 0 10 -262144
-1 -1;
#X text 659 179 syteemfout;
#X text 583 181 onmogelijke;
#X text 520 178 slechte;
#X connect 0 0 26 0;
#X connect 1 0 0 0;
#X connect 1 1 3 0;
#X connect 3 0 31 1;
#X connect 3 0 32 1;
#X connect 4 0 3 1;
#X connect 5 0 6 0;
#X connect 5 0 34 0;
#X connect 5 0 35 0;
#X connect 6 0 4 0;
#X connect 7 0 9 0;
#X connect 7 0 13 0;
#X connect 7 0 15 0;
#X connect 9 0 11 0;
#X connect 9 0 12 0;
#X connect 10 0 13 1;
#X connect 11 0 10 0;
#X connect 12 0 10 1;
#X connect 13 0 14 0;
#X connect 14 0 16 0;
#X connect 15 0 16 1;
#X connect 16 0 29 0;
#X connect 17 0 18 0;
#X connect 17 0 22 0;
#X connect 17 0 24 0;
#X connect 18 0 20 0;
#X connect 18 0 21 0;
#X connect 19 0 22 1;
#X connect 20 0 19 0;
#X connect 21 0 19 1;
#X connect 22 0 23 0;
#X connect 23 0 25 0;
#X connect 24 0 25 1;
#X connect 25 0 30 0;
#X connect 26 0 7 0;
#X connect 26 0 17 0;
#X connect 26 0 30 1;
#X connect 26 0 29 1;
#X connect 27 0 31 0;
#X connect 28 0 32 0;
#X connect 29 0 27 0;
#X connect 30 0 28 0;
#X connect 31 0 33 0;
#X connect 32 0 33 1;
#X connect 33 0 45 0;
#X connect 34 0 7 1;
#X connect 34 1 9 1;
#X connect 34 2 12 1;
#X connect 34 3 15 1;
#X connect 35 0 17 1;
#X connect 35 1 18 1;
#X connect 35 2 21 1;
#X connect 35 3 24 1;
#X connect 36 0 44 1;
#X connect 37 0 44 0;
#X connect 38 0 44 2;
#X connect 39 0 44 3;
#X connect 43 0 44 4;
#X connect 44 0 1 0;
#X connect 46 0 47 0;
#X connect 47 0 37 0;
#X connect 47 1 36 0;
#X connect 47 2 38 0;
#X connect 47 3 39 0;
#X connect 47 4 43 0;
#X connect 47 5 48 0;
#X connect 48 0 44 5;
